<?xml version="1.0" encoding="UTF-8" standalone="no"?>
<!-- Created with Inkscape (http://www.inkscape.org/) -->

<svg
   xmlns:osb="http://www.openswatchbook.org/uri/2009/osb"
   xmlns:dc="http://purl.org/dc/elements/1.1/"
   xmlns:cc="http://creativecommons.org/ns#"
   xmlns:rdf="http://www.w3.org/1999/02/22-rdf-syntax-ns#"
   xmlns:svg="http://www.w3.org/2000/svg"
   xmlns="http://www.w3.org/2000/svg"
   xmlns:sodipodi="http://sodipodi.sourceforge.net/DTD/sodipodi-0.dtd"
   xmlns:inkscape="http://www.inkscape.org/namespaces/inkscape"
   width="25.4cm"
   height="19.049999cm"
   id="svg2"
   version="1.1"
   inkscape:version="0.91 r13725"
   sodipodi:docname="problem-concept.svg"
   inkscape:export-filename="/home/leo/talk/seminario-on-2015/figs/problem-concept-7-params.png"
   inkscape:export-xdpi="200"
   inkscape:export-ydpi="200">
  <defs
     id="defs4">
    <inkscape:path-effect
       fuse_tolerance="0"
       vertical_pattern="false"
       prop_units="true"
       tang_offset="0"
       normal_offset="0"
       spacing="5.5"
       scale_y_rel="false"
       prop_scale="1"
       copytype="repeated"
       pattern="m -1.622193,-1.478616 c 0,3.15592 -2.55837,5.7142904 -5.71428,5.7142904 -3.15592,0 -5.71429,-2.5583704 -5.71429,-5.7142904 0,-3.15591 2.55837,-5.71428 5.71429,-5.71428 3.15591,0 5.71428,2.55837 5.71428,5.71428 z"
       is_visible="true"
       id="path-effect3641"
       effect="skeletal" />
    <linearGradient
       id="linearGradient7304"
       osb:paint="solid">
      <stop
         style="stop-color:#008080;stop-opacity:1;"
         offset="0"
         id="stop7306" />
    </linearGradient>
    <inkscape:path-effect
       effect="skeletal"
       id="path-effect7230"
       is_visible="true"
       pattern="m 2.0574559,1.5 54.4434801,0 c 0.30883,0 0.557456,0.19959 0.557456,0.44751 l 0,56.68368 c 0,0.24792 -0.248626,0.44751 -0.557456,0.44751 l -54.4434801,0 C 1.7486253,59.0787 1.5,58.87911 1.5,58.63119 L 1.5,1.94751 C 1.5,1.69959 1.7486253,1.5 2.0574559,1.5 Z"
       copytype="repeated_stretched"
       prop_scale="1.09"
       scale_y_rel="false"
       spacing="0"
       normal_offset="0"
       tang_offset="0"
       prop_units="false"
       vertical_pattern="false"
       fuse_tolerance="0" />
    <inkscape:path-effect
       effect="skeletal"
       id="path-effect7089"
       is_visible="true"
       pattern="m 0,-25.714286 1,0"
       copytype="single_stretched"
       prop_scale="1"
       scale_y_rel="false"
       spacing="0"
       normal_offset="0"
       tang_offset="0"
       prop_units="false"
       vertical_pattern="false"
       fuse_tolerance="0" />
    <inkscape:path-effect
       effect="skeletal"
       id="path-effect7016"
       is_visible="true"
       pattern="m -1.622193,-1.478616 c 0,3.15592 -2.55837,5.7142904 -5.71428,5.7142904 -3.15592,0 -5.71429,-2.5583704 -5.71429,-5.7142904 0,-3.15591 2.55837,-5.71428 5.71429,-5.71428 3.15591,0 5.71428,2.55837 5.71428,5.71428 z"
       copytype="repeated"
       prop_scale="1"
       scale_y_rel="false"
       spacing="4.1"
       normal_offset="0"
       tang_offset="0"
       prop_units="true"
       vertical_pattern="false"
       fuse_tolerance="0" />
    <inkscape:path-effect
       effect="skeletal"
       id="path-effect6916"
       is_visible="true"
       pattern="M 0,0 1,0"
       copytype="single_stretched"
       prop_scale="1"
       scale_y_rel="false"
       spacing="0"
       normal_offset="0"
       tang_offset="0"
       prop_units="false"
       vertical_pattern="false"
       fuse_tolerance="0" />
    <inkscape:path-effect
       effect="skeletal"
       id="path-effect6902"
       is_visible="true"
       pattern="M 0,0 1,0"
       copytype="repeated"
       prop_scale="1"
       scale_y_rel="false"
       spacing="0"
       normal_offset="0"
       tang_offset="0"
       prop_units="false"
       vertical_pattern="false"
       fuse_tolerance="0" />
    <marker
       inkscape:stockid="Arrow1Mend"
       orient="auto"
       refY="0"
       refX="0"
       id="Arrow1Mend"
       style="overflow:visible">
      <path
         id="path4069"
         d="M 0,0 5,-5 -12.5,0 5,5 0,0 Z"
         style="fill-rule:evenodd;stroke:#000000;stroke-width:1pt"
         transform="matrix(-0.4,0,0,-0.4,-4,0)"
         inkscape:connector-curvature="0" />
    </marker>
    <marker
       inkscape:stockid="Arrow1Mstart"
       orient="auto"
       refY="0"
       refX="0"
       id="Arrow1Mstart"
       style="overflow:visible">
      <path
         id="path4066"
         d="M 0,0 5,-5 -12.5,0 5,5 0,0 Z"
         style="fill-rule:evenodd;stroke:#000000;stroke-width:1pt"
         transform="matrix(0.4,0,0,0.4,4,0)"
         inkscape:connector-curvature="0" />
    </marker>
    <inkscape:path-effect
       effect="skeletal"
       id="path-effect7089-1"
       is_visible="true"
       pattern="m 1.4285714,21.428577 1,0"
       copytype="single_stretched"
       prop_scale="1"
       scale_y_rel="false"
       spacing="0"
       normal_offset="0"
       tang_offset="0"
       prop_units="false"
       vertical_pattern="false"
       fuse_tolerance="0" />
    <inkscape:path-effect
       effect="skeletal"
       id="path-effect7089-6"
       is_visible="true"
       pattern="m -1.7836192,29.599457 0.99999996,0"
       copytype="single_stretched"
       prop_scale="1"
       scale_y_rel="false"
       spacing="0"
       normal_offset="0"
       tang_offset="0"
       prop_units="false"
       vertical_pattern="false"
       fuse_tolerance="0" />
    <inkscape:path-effect
       effect="skeletal"
       id="path-effect7230-5"
       is_visible="true"
       pattern="m -34.682063,-207.50499 54.44348,0 c 0.30883,0 0.55746,0.19959 0.55746,0.44751 l 0,56.68368 c 0,0.24792 -0.24863,0.44751 -0.55746,0.44751 l -54.44348,0 c -0.30883,0 -0.55746,-0.19959 -0.55746,-0.44751 l 0,-56.68368 c 0,-0.24792 0.24863,-0.44751 0.55746,-0.44751 z"
       copytype="repeated_stretched"
       prop_scale="1.11"
       scale_y_rel="true"
       spacing="0"
       normal_offset="0"
       tang_offset="0"
       prop_units="false"
       vertical_pattern="true"
       fuse_tolerance="0" />
    <inkscape:path-effect
       effect="skeletal"
       id="path-effect7230-5-1"
       is_visible="true"
       pattern="m -41.239853,-2.2767393 54.44348,0 c 0.30883,0 0.55746,0.19959 0.55746,0.44751 l 0,56.6836793 c 0,0.24792 -0.24863,0.44751 -0.55746,0.44751 l -54.44348,0 c -0.30883,0 -0.55746,-0.19959 -0.55746,-0.44751 l 0,-56.6836793 c 0,-0.24792 0.24863,-0.44751 0.55746,-0.44751 z"
       copytype="repeated"
       prop_scale="1.11"
       scale_y_rel="true"
       spacing="0"
       normal_offset="0"
       tang_offset="0"
       prop_units="false"
       vertical_pattern="false"
       fuse_tolerance="0" />
    <inkscape:path-effect
       effect="skeletal"
       id="path-effect7230-5-1-1"
       is_visible="true"
       pattern="m 38.983381,438.93205 54.44348,0 c 0.30883,0 0.55746,0.19959 0.55746,0.44751 l 0,56.68368 c 0,0.24792 -0.24863,0.44751 -0.55746,0.44751 l -54.44348,0 c -0.30883,0 -0.55746,-0.19959 -0.55746,-0.44751 l 0,-56.68368 c 0,-0.24792 0.24863,-0.44751 0.55746,-0.44751 z"
       copytype="repeated"
       prop_scale="1.11"
       scale_y_rel="true"
       spacing="0"
       normal_offset="0"
       tang_offset="0"
       prop_units="false"
       vertical_pattern="false"
       fuse_tolerance="0" />
    <inkscape:path-effect
       fuse_tolerance="0"
       vertical_pattern="false"
       prop_units="true"
       tang_offset="0"
       normal_offset="0"
       spacing="5.5"
       scale_y_rel="false"
       prop_scale="1"
       copytype="repeated"
       pattern="m -1.622193,-1.4786095 c 0,3.15592 -2.55837,5.71429 -5.71428,5.71429 -3.15592,0 -5.71429,-2.55837 -5.71429,-5.71429 0,-3.15591 2.55837,-5.71428 5.71429,-5.71428 3.15591,0 5.71428,2.55837 5.71428,5.71428 z"
       is_visible="true"
       id="path-effect3641-7"
       effect="skeletal" />
  </defs>
  <sodipodi:namedview
     id="base"
     pagecolor="#ffffff"
     bordercolor="#666666"
     borderopacity="1.0"
     inkscape:pageopacity="0.0"
     inkscape:pageshadow="2"
     inkscape:zoom="0.49497475"
     inkscape:cx="262.50348"
     inkscape:cy="218.50029"
     inkscape:document-units="px"
     inkscape:current-layer="g7375"
     showgrid="false"
     inkscape:window-width="1366"
     inkscape:window-height="719"
     inkscape:window-x="0"
     inkscape:window-y="25"
     inkscape:window-maximized="1"
     fit-margin-top="0"
     fit-margin-left="0"
     fit-margin-right="0"
     fit-margin-bottom="0"
     showguides="true"
     inkscape:guide-bbox="true"
     units="cm">
    <sodipodi:guide
       orientation="1,0"
       position="-279.54018,320.45982"
       id="guide4052" />
  </sodipodi:namedview>
  <metadata
     id="metadata7">
    <rdf:RDF>
      <cc:Work
         rdf:about="">
        <dc:format>image/svg+xml</dc:format>
        <dc:type
           rdf:resource="http://purl.org/dc/dcmitype/StillImage" />
        <dc:title></dc:title>
      </cc:Work>
    </rdf:RDF>
  </metadata>
  <g
     inkscape:label="Earth"
     inkscape:groupmode="layer"
     id="layer1"
     style="display:none"
     transform="translate(-22.8125,268.31249)">
    <path
       style="color:#000000;display:inline;overflow:visible;visibility:visible;fill:#164184;fill-opacity:1;fill-rule:nonzero;stroke:#164184;stroke-width:3.59355211;stroke-linecap:round;stroke-linejoin:miter;stroke-miterlimit:5;stroke-dasharray:none;stroke-dashoffset:0;stroke-opacity:1;marker:none;enable-background:accumulate"
       d="m 781.12954,129.91939 c -42.37429,-2.15492 -86.51355,-6.90625 -125.60951,-13.52114 -45.54091,-7.70536 -53.84796,-9.84218 -77.42618,-19.916319 -10.37638,-4.433454 -25.33454,-9.980542 -33.24036,-12.326861 -10.18107,-3.021578 -56.18787,-11.084511 -52.23182,-11.152253 3.07193,-0.05258 63.82747,-0.427063 87.01692,-2.779427 64.93291,-6.586868 94.57866,-2.180777 145.00427,-0.199817 50.42561,1.98096 63.65205,-3.391994 90.161,-0.451503 26.50895,2.94049 33.4935,0.0797 51.32415,2.919868 17.83065,2.840166 34.53426,3.565724 39.48629,2.454719 4.95203,-1.111005 21.05409,-0.128067 21.05409,-0.128067 l 0,27.30707 0,27.30705 -43.41357,1.18579 c -48.56632,1.32651 -64.42873,1.21793 -102.12528,-0.69911 z"
       id="path3904"
       inkscape:connector-curvature="0"
       sodipodi:nodetypes="sssssszzzzcccss" />
    <path
       style="color:#000000;display:inline;overflow:visible;visibility:visible;fill:#ac9393;fill-opacity:1;fill-rule:nonzero;stroke:#ac9393;stroke-width:3.59355211;stroke-linecap:round;stroke-linejoin:miter;stroke-miterlimit:5;stroke-dasharray:none;stroke-dashoffset:0;stroke-opacity:1;marker:none;enable-background:accumulate"
       d="M 277.13386,363.48453 C 262.727,361.5536 240.08181,356.13998 210.15953,347.47354 196.59586,343.54505 177.4128,338.66113 167.53053,336.62035 138.91707,330.71149 77.747509,320.97554 55.232019,318.74657 43.867411,317.62152 31.94131,316.29862 28.729573,315.80679 l -5.839522,-0.89421 0,-88.78975 0,-88.78971 6.737909,-1.7359 c 41.727654,-10.75036 98.12219,-26.23306 111.41091,-30.58702 26.47637,-8.674848 41.41648,-16.44903 77.93588,-40.554459 46.30009,-30.561374 49.7393,-32.25905 65.34622,-32.256662 10.22326,0.0012 16.54839,1.419251 33.79282,7.574181 17.5678,6.270341 26.98989,8.34822 54.80168,12.085541 44.26219,5.947919 59.50965,8.857368 80.66788,15.392602 9.68128,2.990309 33.36904,8.700891 52.63945,12.690176 32.11368,6.648067 59.41836,15.022539 75.48635,23.151991 11.31303,5.72376 30.76572,10.53831 68.25573,16.89336 70.76196,11.99506 106.07116,14.53814 199.89135,14.39677 l 76.81216,-0.11571 0,23.71183 0,23.71185 -74.80755,1.33581 c -52.00467,0.92862 -80.23058,0.71914 -92.59837,-0.68721 -25.22605,-2.86851 -66.91416,-2.50568 -89.30244,0.77722 -22.69215,3.32744 -55.96832,13.96951 -78.39036,25.07007 -10.31696,5.10765 -23.1071,13.71965 -35.33108,23.78952 -14.04667,11.57138 -28.43233,20.94704 -53.90329,35.13072 -19.48615,10.85099 -41.74723,24.86633 -50.69275,31.91562 -21.40568,16.86821 -34.4628,24.37871 -69.93552,40.22717 -35.58468,15.89851 -53.24903,21.73859 -73.39143,24.26423 -16.31318,2.04549 -15.69008,2.04611 -31.18174,-0.0302 l 0,-7e-5 z"
       id="path3906"
       inkscape:connector-curvature="0" />
    <path
       style="color:#000000;display:inline;overflow:visible;visibility:visible;fill:#ff3333;fill-opacity:1;fill-rule:nonzero;stroke:#ff3333;stroke-width:3.59355211;stroke-linecap:round;stroke-linejoin:miter;stroke-miterlimit:5;stroke-dasharray:none;stroke-dashoffset:0;stroke-opacity:1;marker:none;enable-background:accumulate"
       d="m 22.890051,364.23967 0,-44.26811 15.72179,1.26413 c 46.200539,3.71479 124.910559,17.7817 168.447759,30.10468 52.43033,14.84012 61.17149,16.54501 85.34686,16.64607 31.4035,0.13133 43.91016,-3.29297 93.43235,-25.58112 34.13016,-15.36076 45.77871,-22.09457 70.38561,-40.68859 10.54764,-7.97023 31.56992,-21.30205 46.71618,-29.62626 33.20686,-18.25008 39.42651,-22.31429 58.48147,-38.21444 18.01956,-15.03618 34.98231,-24.381 61.29353,-33.76673 42.25591,-15.07352 82.49343,-19.1391 134.63437,-13.60332 26.20422,2.78208 35.64092,2.88245 93.17559,0.9911 35.21011,-1.15747 66.74639,-1.59271 70.08061,-0.9672 l 6.06222,1.13728 0,110.42031 0,110.42031 -451.88916,0 -451.889179,0 0,-44.26811 z"
       id="path3908"
       inkscape:connector-curvature="0" />
    <path
       style="display:inline;fill:none;stroke:#1a1a1a;stroke-width:3.7732296;stroke-linecap:butt;stroke-linejoin:miter;stroke-miterlimit:5;stroke-dasharray:none;stroke-opacity:1"
       d="M -12.821959,144.91794 C 30.88491,131.50228 121.31224,111.95319 160.05186,95.856026 c 38.73963,-16.097147 61.47089,-38.208373 96.55725,-58.810937 35.08636,-20.602571 57.36858,4.154413 91.52022,9.512941 34.15164,5.358527 71.95931,6.327001 108.3509,19.260086 36.3916,12.933097 77.46728,12.162214 114.8936,30.303309 37.42632,18.141105 41.98086,13.975465 89.57878,23.676995 47.59794,9.70153 163.116,16.28917 202.40067,13.55254 39.28466,-2.73662 64.39111,0.0386 81.86499,-2.01298"
       id="path2987"
       inkscape:connector-curvature="0"
       sodipodi:nodetypes="czzzzzzzc" />
    <path
       style="display:inline;fill:none;stroke:#1a1a1a;stroke-width:3.7732296;stroke-linecap:butt;stroke-linejoin:miter;stroke-miterlimit:5;stroke-dasharray:none;stroke-opacity:1"
       d="m -18.086384,319.2604 c 39.20772,-9.12633 168.051234,15.08907 200.044514,22.71121 31.99328,7.62212 75.75563,24.68517 109.65718,24.9191 33.90155,0.23392 56.43433,-9.78106 83.30506,-22.06018 26.87072,-12.27912 53.71828,-21.95837 78.89153,-44.60781 25.17326,-22.64942 75.3433,-39.86823 100.86389,-63.59652 25.52059,-23.7283 37.24153,-27.75319 73.76336,-41.28553 36.52184,-13.53236 90.16681,-17.15995 133.50015,-10.36703 43.33335,6.79292 142.07336,-7.10577 179.81906,2.12356"
       id="path2997"
       inkscape:connector-curvature="0"
       sodipodi:nodetypes="czzzzzzzc" />
    <path
       style="display:inline;fill:none;stroke:#1a1a1a;stroke-width:3.7732296;stroke-linecap:butt;stroke-linejoin:miter;stroke-miterlimit:5;stroke-dasharray:none;stroke-opacity:1"
       d="m 486.83432,73.037669 c 48.89161,0.414162 136.77672,-10.143602 186.77732,-6.707048 50.0006,3.436554 117.27728,-0.709761 156.57445,2.732028 39.29718,3.441789 70.73048,6.972506 107.8221,4.798375"
       id="path2991"
       inkscape:connector-curvature="0"
       sodipodi:nodetypes="czzc" />
    <path
       style="display:inline;fill:none;stroke:#1a1a1a;stroke-width:3.7732296;stroke-linecap:butt;stroke-linejoin:miter;stroke-miterlimit:5;stroke-dasharray:none;stroke-opacity:1"
       d="M -12.821959,144.91794 C 30.88491,131.50228 121.31224,111.95319 160.05186,95.856032 c 38.73963,-16.09715 61.47089,-38.20838 96.55725,-58.81094 35.08636,-20.60257 57.36858,4.15441 91.52022,9.51294 34.15164,5.35853 71.95931,6.327 108.3509,19.26009 36.3916,12.93309 77.46728,12.16221 114.8936,30.3033 37.42632,18.141108 41.98086,13.975468 89.57878,23.676998 47.59794,9.70153 163.116,16.28917 202.40067,13.55254 39.28466,-2.73662 64.39111,0.0386 81.86499,-2.01298"
       id="path2987-5"
       inkscape:connector-curvature="0"
       sodipodi:nodetypes="czzzzzzzc" />
    <text
       xml:space="preserve"
       style="font-style:normal;font-variant:normal;font-weight:normal;font-stretch:normal;font-size:37.73229599px;line-height:125%;font-family:'TeX Gyre Heros';-inkscape-font-specification:'TeX Gyre Heros';letter-spacing:0px;word-spacing:0px;display:inline;fill:#000000;fill-opacity:1;stroke:none"
       x="727.8446"
       y="343.42014"
       id="text3896-5"
       sodipodi:linespacing="125%"><tspan
         sodipodi:role="line"
         id="tspan3898-6"
         x="727.8446"
         y="343.42014">Manto</tspan></text>
    <text
       xml:space="preserve"
       style="font-style:normal;font-variant:normal;font-weight:normal;font-stretch:normal;font-size:37.73229599px;line-height:125%;font-family:'TeX Gyre Heros';-inkscape-font-specification:'TeX Gyre Heros';letter-spacing:0px;word-spacing:0px;display:inline;fill:#000000;fill-opacity:1;stroke:none"
       x="100.07362"
       y="233.59328"
       id="text3900-6"
       sodipodi:linespacing="125%"><tspan
         sodipodi:role="line"
         id="tspan3902-8"
         x="100.07362"
         y="233.59328">Crosta</tspan></text>
    <text
       xml:space="preserve"
       style="font-style:normal;font-variant:normal;font-weight:normal;font-stretch:normal;font-size:37.73229599px;line-height:125%;font-family:'TeX Gyre Heros';-inkscape-font-specification:'TeX Gyre Heros';letter-spacing:0px;word-spacing:0px;display:inline;fill:#f2f2f2;fill-opacity:1;stroke:none"
       x="742.45197"
       y="113.91937"
       id="text3896-7-7"
       sodipodi:linespacing="125%"><tspan
         sodipodi:role="line"
         id="tspan3898-0-8"
         x="742.45197"
         y="113.91937">Água</tspan></text>
  </g>
  <g
     style="display:none"
     inkscape:label="Dados"
     id="g7375"
     inkscape:groupmode="layer"
     transform="translate(0,272.06249)">
    <path
       style="color:#000000;display:inline;overflow:visible;visibility:visible;fill:#ac9393;fill-opacity:1;fill-rule:nonzero;stroke:#ac9393;stroke-width:3.59355211;stroke-linecap:round;stroke-linejoin:miter;stroke-miterlimit:5;stroke-dasharray:none;stroke-dashoffset:0;stroke-opacity:1;marker:none;enable-background:accumulate"
       d="m 500.5759,251.18383 c -166.94975,12.06743 -329.45344,35.72599 -484.781408,62.06177 4.870775,0.54203 10.801234,1.19209 16.625787,1.7687 22.515491,2.22898 83.679441,11.93536 112.292891,17.84423 9.88227,2.04077 29.08168,6.91956 42.64535,10.84805 29.92229,8.66643 52.56798,14.10528 66.97484,16.03621 15.49164,2.0763 14.85527,2.08481 31.16845,0.0392 20.14238,-2.52564 37.79676,-8.39165 73.38145,-24.29016 35.47271,-15.84845 48.55628,-23.34027 69.96197,-40.20848 8.94552,-7.04928 31.17733,-21.06424 50.66347,-31.91523 8.03464,-4.47415 14.90131,-8.44726 21.0672,-12.18439 z"
       id="path3906-3-5-9"
       inkscape:connector-curvature="0" />
    <path
       style="color:#000000;display:inline;overflow:visible;visibility:visible;fill:#ff3333;fill-opacity:1;fill-rule:nonzero;stroke:#ff3333;stroke-width:3.59355211;stroke-linecap:round;stroke-linejoin:miter;stroke-miterlimit:5;stroke-dasharray:none;stroke-dashoffset:0;stroke-opacity:1;marker:none;enable-background:accumulate"
       d="m 688.72642,180.43577 c -31.66683,0.41418 -59.77718,5.55528 -88.82811,15.91832 -26.31123,9.38574 -43.25612,18.72637 -61.27568,33.76254 -10.76147,8.97978 -17.45165,14.20352 -27.1987,20.32042 128.63098,-8.89821 259.83924,-10.83488 392.41589,-1.72939 l 0,-64.77378 -6.05288,-1.13983 c -3.33424,-0.6255 -34.86977,-0.21417 -70.07989,0.9433 -57.53469,1.89135 -66.9474,1.79947 -93.1516,-0.98261 -16.29405,-1.72992 -31.43502,-2.50722 -45.82903,-2.31897 z"
       id="path3908-9-1-8"
       inkscape:connector-curvature="0" />
    <path
       style="display:inline;fill:none;stroke:#1a1a1a;stroke-width:3.7732296;stroke-linecap:butt;stroke-linejoin:miter;stroke-miterlimit:5;stroke-dasharray:none;stroke-opacity:1"
       d="m -40.898884,315.5104 c 39.2077197,-9.12633 168.051234,15.08907 200.044494,22.71121 31.99328,7.62212 75.75563,24.68517 109.6572,24.9191 33.90155,0.23392 56.43432,-9.78106 83.30504,-22.06018 26.87073,-12.27912 53.71828,-21.95837 78.89154,-44.60781 25.17325,-22.64942 75.3433,-39.86823 100.86389,-63.59652 25.5206,-23.7283 37.24153,-27.75319 73.76336,-41.28553 36.52183,-13.53236 90.16681,-17.15995 133.50015,-10.36703 43.33334,6.79292 142.07336,-7.10577 179.81906,2.12356"
       id="path2997-9-7-9"
       inkscape:connector-curvature="0"
       sodipodi:nodetypes="czzzzzzzc" />
    <path
       sodipodi:nodetypes="ccccc"
       inkscape:connector-curvature="0"
       d="M 921.87366,250.00616 C 570.72448,223.24391 228.62823,275.0048 -81.304993,330.13875 L -93.901126,152.99123 C 146.83678,94.84135 447.96436,43.380479 927.24523,76.452209 Z"
       style="display:inline;fill:none;stroke:#1a1a1a;stroke-width:3.7732296;stroke-linecap:butt;stroke-linejoin:miter;stroke-miterlimit:5;stroke-dasharray:22.63937819, 3.7732297;stroke-dashoffset:0;stroke-opacity:1"
       id="path7379" />
    <path
       style="display:inline;fill:#1a1a1a;stroke:none"
       d="m 66.468777,74.695376 c 0.506594,3.115052 -1.606964,6.050546 -4.717942,6.559096 -3.111044,0.50856 -6.049351,-1.601115 -6.561019,-4.715276 -0.511663,-3.114132 1.598982,-6.053899 4.717151,-6.563681 3.118215,-0.50979 6.055215,1.604801 6.56181,4.719861 z M 139.86536,63.223998 c 0.46586,3.1214 -1.68548,6.028933 -4.80128,6.497649 -3.11587,0.468725 -6.02744,-1.677228 -6.50044,-4.797611 -0.47299,-3.120353 1.67444,-6.033897 4.80035,-6.504106 3.12596,-0.470215 6.03552,1.682659 6.50137,4.804068 z m 73.55874,-10.35435 c 0.41169,3.128815 -1.78917,5.998306 -4.91085,6.413771 -3.12174,0.415473 -5.99652,-1.778535 -6.41742,-4.906168 -0.42089,-3.127603 1.77507,-6.004917 4.90977,-6.422099 3.13475,-0.417188 6.00682,1.785672 6.4185,4.914496 z m 73.74541,-8.917961 c 0.34325,3.137209 -1.91944,5.957879 -5.04776,6.306036 -3.12835,0.34816 -5.95583,-1.906019 -6.31072,-5.041927 -0.35489,-3.135895 1.90181,-5.966566 5.0466,-6.316563 3.14479,-0.349997 5.96864,1.915251 6.31188,5.052454 z m 73.93672,-7.174096 c 0.26579,3.144681 -2.06565,5.908649 -5.20124,6.179769 -3.13561,0.271121 -5.90688,-2.051651 -6.18479,-5.195301 -0.27791,-3.143635 2.04757,-5.918141 5.20031,-6.190734 3.15274,-0.272594 5.91993,2.061592 6.18572,5.206266 z m 74.09253,-5.313589 c 0.18517,3.150449 -2.21619,5.853758 -5.35733,6.044692 -3.14116,0.190935 -5.85227,-2.201616 -6.05005,-5.351289 -0.19777,-3.14966 2.19766,-5.86407 5.35664,-6.056097 3.15898,-0.192028 5.86557,2.212251 6.05074,5.362694 z m 74.20303,-3.424847 c 0.10828,3.15395 -2.35861,5.797889 -5.50469,5.911285 -3.14603,0.113395 -5.79684,-2.346047 -5.916,-5.499571 -0.11915,-3.153533 2.34288,-5.807156 5.50434,-5.921117 3.16139,-0.113959 5.80806,2.355482 5.91635,5.509403 z m 74.26251,-1.786394 c 0.0459,3.155689 -2.47342,5.750595 -5.62291,5.800661 -3.14944,0.05007 -5.74992,-2.46341 -5.80448,-5.618899 -0.0545,-3.155499 2.46102,-5.758207 5.62277,-5.808498 3.16169,-0.05029 5.75874,2.471077 5.80462,5.626736 z m 74.28544,-0.486365 c -0.002,2.920425 -2.19345,5.327746 -5.01775,5.671298 0,0 0,0 0,0 -0.22771,0.0277 -0.45954,0.042 -0.69471,0.04207 -3.15132,0.001 -5.71186,-2.553579 -5.71614,-5.709533 -0.004,-3.155964 2.55199,-5.718083 5.71252,-5.719051 0.23564,-7.2e-5 0.46796,0.01411 0.69614,0.04172 0,0 0,0 0,0 2.83153,0.342678 5.02178,2.752934 5.01994,5.673492 z m 74.28284,0.457063 c -0.0352,3.155691 -2.62112,5.685083 -5.77366,5.652089 -3.15251,-0.03299 -5.68487,-2.615928 -5.65412,-5.771639 0.0308,-3.155714 2.61481,-5.689191 5.7737,-5.65614 3.15885,0.03305 5.68931,2.620022 5.65408,5.77569 z m 74.27708,1.125898 c -0.0588,3.155426 -2.66389,5.665559 -5.81722,5.608247 -3.1533,-0.05731 -5.66542,-2.660427 -5.60961,-5.815879 0.0558,-3.155455 2.6597,-5.66833 5.81728,-5.610951 3.15753,0.05738 5.66837,2.66318 5.60955,5.818583 z M 880.78,28.916462 c -0.0727,3.155112 -2.68912,5.653804 -5.8432,5.581837 -3.15405,-0.07197 -5.65374,-2.687375 -5.58253,-5.842531 0.0712,-3.155159 2.68703,-5.655225 5.84326,-5.583195 3.15617,0.07203 5.65519,2.6888 5.58247,5.843889 z"
       id="path6720-8"
       inkscape:connector-curvature="0"
       sodipodi:nodetypes="cc"
       inkscape:path-effect="#path-effect3641-7"
       inkscape:original-d="M 55.189817,76.539201 C 367.94626,25.152161 527.97129,20.606011 895.02394,29.248451" />
  </g>
  <g
     inkscape:groupmode="layer"
     id="layer11"
     inkscape:label="parametros"
     style="display:inline"
     transform="translate(0,272.06249)">
    <g
       id="g7458"
       style="opacity:0.65573772"
       transform="matrix(1.2577432,0,0,1.2577432,-2.9537432,-100.59123)">
      <path
         inkscape:connector-curvature="0"
         id="path3906-3-5-9-6"
         d="m 400.34375,279.6875 c -132.73755,9.59451 -261.94014,28.40483 -385.4375,49.34375 3.872631,0.43095 8.58779,0.9478 13.218745,1.40625 17.9015,1.7722 66.531418,9.4895 89.281255,14.1875 7.85714,1.62256 23.12211,5.50156 33.90625,8.625 23.79045,6.89047 41.79547,11.21476 53.25,12.75 12.31702,1.65081 11.81105,1.65757 24.78125,0.0312 16.0147,-2.00808 30.05126,-6.672 58.34375,-19.3125 28.20346,-12.60071 38.60588,-18.55726 55.625,-31.96875 7.11236,-5.60471 24.78831,-16.74765 40.28125,-25.375 6.38814,-3.55728 11.84766,-6.7162 16.75,-9.6875 z"
         style="color:#000000;display:inline;overflow:visible;visibility:visible;fill:#ac9393;fill-opacity:1;fill-rule:nonzero;stroke:#ac9393;stroke-width:2.85714293;stroke-linecap:round;stroke-linejoin:miter;stroke-miterlimit:5;stroke-dasharray:none;stroke-dashoffset:0;stroke-opacity:1;marker:none;enable-background:accumulate" />
      <path
         inkscape:connector-curvature="0"
         id="path3908-9-1-8-1"
         d="m 549.9375,223.4375 c -25.17751,0.3293 -47.52734,4.41685 -70.625,12.65625 -20.9194,7.46236 -34.39185,14.88886 -48.71875,26.84375 -8.55618,7.13959 -13.87537,11.29286 -21.625,16.15625 102.27125,-7.07474 206.59164,-8.61454 312,-1.375 l 0,-51.5 -4.8125,-0.90625 c -2.65097,-0.49732 -27.72407,-0.17028 -55.71875,0.75 -45.74438,1.50376 -53.2282,1.43071 -74.0625,-0.78125 -12.95498,-1.37542 -24.99319,-1.99343 -36.4375,-1.84375 z"
         style="color:#000000;display:inline;overflow:visible;visibility:visible;fill:#ff3333;fill-opacity:1;fill-rule:nonzero;stroke:#ff3333;stroke-width:2.85714293;stroke-linecap:round;stroke-linejoin:miter;stroke-miterlimit:5;stroke-dasharray:none;stroke-dashoffset:0;stroke-opacity:1;marker:none;enable-background:accumulate" />
      <path
         sodipodi:nodetypes="czzzzzzzc"
         inkscape:connector-curvature="0"
         id="path2997-9-7-9-0"
         d="m -30.169227,330.83194 c 31.173072,-7.25612 133.613307,11.99694 159.050347,18.0571 25.43705,6.06016 60.2314,19.62656 87.18568,19.81255 26.95427,0.18599 44.8695,-7.77667 66.23374,-17.53949 21.36424,-9.76282 42.71006,-17.45855 62.72468,-35.46654 20.01462,-18.00799 59.90356,-31.69823 80.19434,-50.564 20.29079,-18.86577 29.6098,-22.06586 58.64739,-32.82509 29.03759,-10.75923 71.68936,-13.64344 106.14261,-8.24256 34.45325,5.40088 112.95896,-5.64962 142.96961,1.68839"
         style="display:inline;fill:none;stroke:#1a1a1a;stroke-width:3;stroke-linecap:butt;stroke-linejoin:miter;stroke-miterlimit:5;stroke-dasharray:none;stroke-opacity:1" />
    </g>
    <path
       style="display:inline;fill:#1a1a1a;stroke:none"
       d="m 66.468777,74.695369 c 0.506594,3.115052 -1.606964,6.050546 -4.717942,6.559096 -3.111044,0.508561 -6.049351,-1.601115 -6.561019,-4.715276 -0.511663,-3.114133 1.598982,-6.053899 4.717151,-6.563682 3.118215,-0.509789 6.055215,1.604802 6.56181,4.719862 z M 139.86536,63.223991 c 0.46586,3.1214 -1.68548,6.028934 -4.80128,6.497649 -3.11587,0.468725 -6.02744,-1.677228 -6.50044,-4.797611 -0.47299,-3.120353 1.67444,-6.033897 4.80035,-6.504106 3.12596,-0.470215 6.03552,1.682659 6.50137,4.804068 z M 213.4241,52.86964 c 0.41169,3.128816 -1.78917,5.998308 -4.91085,6.413772 -3.12174,0.415473 -5.99652,-1.778535 -6.41742,-4.906168 -0.42089,-3.127603 1.77507,-6.004917 4.90977,-6.422099 3.13475,-0.417188 6.00682,1.785672 6.4185,4.914495 z m 73.74541,-8.91796 c 0.34325,3.137209 -1.91944,5.957879 -5.04776,6.306036 -3.12835,0.34816 -5.95583,-1.906019 -6.31072,-5.041927 -0.35489,-3.135895 1.90181,-5.966567 5.0466,-6.316563 3.14479,-0.349997 5.96864,1.915251 6.31188,5.052454 z m 73.93672,-7.174096 c 0.26579,3.14468 -2.06565,5.908649 -5.20124,6.179769 -3.13561,0.271121 -5.90688,-2.051651 -6.18479,-5.195301 -0.27791,-3.143636 2.04757,-5.918142 5.20031,-6.190735 3.15274,-0.272593 5.91993,2.061592 6.18572,5.206267 z m 74.09253,-5.31359 c 0.18517,3.150449 -2.21619,5.853758 -5.35733,6.044692 -3.14116,0.190936 -5.85227,-2.201616 -6.05005,-5.351289 -0.19777,-3.14966 2.19766,-5.86407 5.35664,-6.056097 3.15898,-0.192028 5.86557,2.212251 6.05074,5.362694 z m 74.20303,-3.424848 c 0.10828,3.15395 -2.35861,5.797889 -5.50469,5.911286 -3.14603,0.113394 -5.79684,-2.346048 -5.916,-5.499571 -0.11915,-3.153534 2.34288,-5.807156 5.50434,-5.921118 3.16139,-0.113959 5.80806,2.355483 5.91635,5.509403 z m 74.26251,-1.786395 c 0.0459,3.155689 -2.47342,5.750596 -5.62291,5.800662 -3.14944,0.05007 -5.74992,-2.463411 -5.80448,-5.618899 -0.0545,-3.155499 2.46102,-5.758208 5.62277,-5.808499 3.16169,-0.05029 5.75874,2.471077 5.80462,5.626736 z m 74.28544,-0.486365 c -0.002,2.920425 -2.19345,5.327746 -5.01775,5.671298 0,0 0,0 0,0 -0.22771,0.0277 -0.45954,0.042 -0.69471,0.04208 -3.15132,0.001 -5.71186,-2.55358 -5.71614,-5.709534 -0.004,-3.155964 2.55199,-5.718083 5.71252,-5.719051 0.23564,-7.2e-5 0.46796,0.01411 0.69614,0.04172 0,0 0,0 0,0 2.83153,0.342678 5.02178,2.752934 5.01994,5.673492 z m 74.28284,0.457062 c -0.0352,3.155691 -2.62112,5.685084 -5.77366,5.65209 -3.15251,-0.03299 -5.68487,-2.615928 -5.65412,-5.771639 0.0308,-3.155715 2.61481,-5.689192 5.7737,-5.656141 3.15885,0.03305 5.68931,2.620022 5.65408,5.77569 z m 74.27708,1.125897 c -0.0588,3.155426 -2.66389,5.66556 -5.81722,5.608248 -3.1533,-0.05731 -5.66542,-2.660427 -5.60961,-5.815879 0.0558,-3.155455 2.6597,-5.66833 5.81728,-5.610951 3.15753,0.05738 5.66837,2.66318 5.60955,5.818582 z M 880.78,28.91645 c -0.0727,3.155112 -2.68912,5.653804 -5.8432,5.581838 -3.15405,-0.07197 -5.65374,-2.687376 -5.58253,-5.842532 0.0712,-3.155159 2.68703,-5.655225 5.84326,-5.583195 3.15617,0.07203 5.65519,2.6888 5.58247,5.843889 z"
       id="path6720"
       inkscape:connector-curvature="0"
       sodipodi:nodetypes="cc"
       inkscape:path-effect="#path-effect3641"
       inkscape:original-d="M 55.189817,76.539194 C 367.94626,25.152155 527.97129,20.606002 895.02394,29.248439" />
    <path
       id="path3005-8-5-4-4"
       style="display:inline;fill:none;stroke:#1a1a1a;stroke-width:3.7732296;stroke-linecap:butt;stroke-linejoin:miter;stroke-miterlimit:5;stroke-dasharray:22.63937819, 3.7732297;stroke-dashoffset:0;stroke-opacity:1"
       d="M 921.87366,250.00616 C 570.72448,223.24391 228.62823,275.0048 -81.304993,330.13875 L -93.901126,152.99123 C 146.83678,94.84135 447.96436,43.380479 927.24523,76.452209 Z"
       inkscape:connector-curvature="0"
       sodipodi:nodetypes="ccccc" />
    <path
       style="color:#000000;display:inline;overflow:visible;visibility:visible;fill:#ff3333;stroke:#ff3333;stroke-width:6.35256243;stroke-miterlimit:5;stroke-dasharray:none;stroke-dashoffset:0;marker:none;enable-background:accumulate"
       d="m 552.06177,225.66438 c -0.51166,-10.56501 -0.72122,-19.41437 -0.46568,-19.66522 0.25555,-0.25086 11.61337,-1.08278 25.23961,-1.84871 13.62625,-0.76592 27.75032,-1.6769 31.38682,-2.02438 l 6.61183,-0.6318 0.63307,4.1334 c 0.34817,2.27337 0.97489,11.03934 1.3927,19.47991 l 0.75964,15.34652 -27.69747,1.53227 c -15.23362,0.84273 -29.77484,1.83709 -32.31384,2.20968 l -4.61638,0.67745 -0.9303,-19.20912 0,0 z"
       id="path7340"
       inkscape:connector-curvature="0" />
    <path
       style="color:#000000;display:inline;overflow:visible;visibility:visible;fill:#ff3333;stroke:#ff3333;stroke-width:6.35256243;stroke-miterlimit:5;stroke-dasharray:none;stroke-dashoffset:0;marker:none;enable-background:accumulate"
       d="m 625.01411,236.44184 c -0.0544,-2.09634 -0.77013,-14.81736 -1.59033,-28.26891 l -1.49128,-24.45736 32.52059,0 32.52061,0 0.764,27.59733 c 0.42019,15.17853 0.65082,27.7105 0.5125,27.84882 -0.13832,0.13833 -14.40075,0.44054 -31.69427,0.67157 l -31.44277,0.42009 -0.0991,-3.81154 0,0 z"
       id="path7342"
       inkscape:connector-curvature="0" />
    <path
       style="color:#000000;display:inline;overflow:visible;visibility:visible;fill:#ff3333;stroke:#ff3333;stroke-width:6.35256243;stroke-miterlimit:5;stroke-dasharray:none;stroke-dashoffset:0;marker:none;enable-background:accumulate"
       d="m 696.26388,213.11835 0,-26.49977 7.80945,-0.81625 c 4.29519,-0.44894 18.30259,-0.81625 31.12756,-0.81625 l 23.31811,0 -0.005,11.11699 c -0.002,6.11433 -0.37694,18.40655 -0.83133,27.31602 l -0.82612,16.19903 -30.29622,0 -30.29625,0 0,-26.49977 z"
       id="path7344"
       inkscape:connector-curvature="0" />
    <path
       style="color:#000000;display:inline;overflow:visible;visibility:visible;fill:#ff3333;stroke:#ff3333;stroke-width:6.35256243;stroke-miterlimit:5;stroke-dasharray:none;stroke-dashoffset:0;marker:none;enable-background:accumulate"
       d="m 773.88698,239.94133 -9.40699,-0.44243 0.83104,-19.20008 c 0.45707,-10.56005 0.83104,-22.91672 0.83104,-27.45928 l 0,-8.25921 30.67708,0.81116 c 16.87238,0.44612 30.94732,1.08141 31.27764,1.41171 0.33032,0.33032 0.1806,12.63467 -0.33271,27.34302 l -0.93329,26.74241 -21.76839,-0.25245 c -11.97263,-0.13884 -26.00156,-0.45153 -31.17542,-0.69485 z"
       id="path7346"
       inkscape:connector-curvature="0" />
    <path
       style="color:#000000;display:inline;overflow:visible;visibility:visible;fill:#ff3333;stroke:#ff3333;stroke-width:6.35256243;stroke-miterlimit:5;stroke-dasharray:none;stroke-dashoffset:0;marker:none;enable-background:accumulate"
       d="m 874.7709,243.3643 c -9.78296,-0.49231 -22.85981,-0.96488 -29.05969,-1.05014 l -11.27253,-0.15501 0.92747,-30.17468 c 0.5101,-16.59607 1.01928,-30.28036 1.13152,-30.40953 0.28991,-0.33366 62.33928,2.38539 62.76262,2.75029 0.36822,0.3174 -1.67836,35.46085 -2.97949,51.16372 -0.49134,5.92973 -1.2904,9.13271 -2.24299,8.99085 -0.81385,-0.12125 -9.48397,-0.62317 -19.26691,-1.1155 z"
       id="path7348"
       inkscape:connector-curvature="0" />
    <path
       style="color:#000000;display:inline;overflow:visible;visibility:visible;fill:#ac9393;fill-opacity:1;fill-rule:nonzero;stroke:#ac9393;stroke-width:6.35256243;stroke-miterlimit:5;stroke-dasharray:none;stroke-dashoffset:0;marker:none;enable-background:accumulate"
       d="m 141.73282,338.55642 c -3.51384,-14.83 -7.69364,-41.76525 -6.48111,-41.76525 0.78668,0 14.5456,-1.97018 30.57538,-4.37818 16.02978,-2.40801 29.34717,-4.17607 29.59421,-3.92905 0.24701,0.24703 1.84317,10.04036 3.54698,21.76299 2.1299,14.65418 2.67625,21.57441 1.74855,22.14775 -0.74212,0.45865 -12.0409,2.36185 -25.10843,4.22932 -13.06752,1.86748 -25.87462,3.74452 -28.46021,4.17123 -4.19845,0.69286 -4.77744,0.4535 -5.41537,-2.23881 l 0,0 z"
       id="path7350"
       inkscape:connector-curvature="0" />
    <path
       style="color:#000000;display:inline;overflow:visible;visibility:visible;fill:#ac9393;fill-opacity:1;fill-rule:nonzero;stroke:#ac9393;stroke-width:6.35256243;stroke-miterlimit:5;stroke-dasharray:none;stroke-dashoffset:0;marker:none;enable-background:accumulate"
       d="m 213.46913,358.74072 c 0,-0.31957 -2.28805,-16.48418 -5.08454,-35.92134 -2.79651,-19.43718 -4.92821,-35.49664 -4.73713,-35.68773 0.81616,-0.81616 60.63467,-8.55863 61.26377,-7.92953 1.34781,1.34779 9.78926,69.93937 8.72077,70.8612 -0.59622,0.51439 -13.09038,2.51385 -27.7648,4.44323 -14.67444,1.92938 -27.96717,3.8021 -29.53943,4.1616 -1.57225,0.35948 -2.85864,0.39215 -2.85864,0.0726 z"
       id="path7352"
       inkscape:connector-curvature="0" />
    <path
       style="color:#000000;display:inline;overflow:visible;visibility:visible;fill:#ac9393;fill-opacity:1;fill-rule:nonzero;stroke:#ac9393;stroke-width:6.35256243;stroke-miterlimit:5;stroke-dasharray:none;stroke-dashoffset:0;marker:none;enable-background:accumulate"
       d="m 68.029667,323.13222 c -1.802764,-5.59803 -2.875057,-14.32852 -1.838534,-14.96913 0.655192,-0.40493 13.335536,-2.59429 28.178548,-4.86523 14.843009,-2.27096 28.202289,-4.42218 29.687309,-4.78051 2.43821,-0.58832 2.80194,0.0664 3.75101,6.75187 0.57804,4.07186 1.07822,7.94128 1.11151,8.59874 0.0334,0.65745 -11.94582,3.05522 -26.62023,5.32836 -14.67442,2.27317 -28.274784,4.44102 -30.223029,4.81748 -2.21373,0.42777 -3.731409,0.0971 -4.046584,-0.88158 z"
       id="path7354"
       inkscape:connector-curvature="0" />
    <path
       style="color:#000000;display:inline;overflow:visible;visibility:visible;fill:#ac9393;fill-opacity:1;fill-rule:nonzero;stroke:#ac9393;stroke-width:6.35256243;stroke-miterlimit:5;stroke-dasharray:none;stroke-dashoffset:0;marker:none;enable-background:accumulate"
       d="m 282.7651,352.37611 c -3.35149,-19.84521 -9.43359,-73.94905 -8.38579,-74.59662 1.66729,-1.03044 59.91934,-7.96175 60.66291,-7.21817 0.67281,0.67281 7.38065,53.94522 8.70677,69.14748 0.73874,8.46867 0.57964,10.44511 -0.84117,10.45031 -0.96371,0.004 -13.47266,1.42304 -27.79769,3.15453 -33.44728,4.04279 -31.49438,4.0994 -32.34503,-0.93753 z"
       id="path7356"
       inkscape:connector-curvature="0" />
    <path
       style="color:#000000;display:inline;overflow:visible;visibility:visible;fill:#ac9393;fill-opacity:1;fill-rule:nonzero;stroke:#ac9393;stroke-width:6.35256243;stroke-miterlimit:5;stroke-dasharray:none;stroke-dashoffset:0;marker:none;enable-background:accumulate"
       d="m 350.15128,325.86442 c -0.90175,-4.09647 -7.06849,-56.19891 -6.69571,-56.57167 0.16273,-0.16273 13.99018,-1.73001 30.72767,-3.48287 19.4729,-2.03931 30.70988,-2.7371 31.20396,-1.93766 1.43072,2.31497 5.43708,57.14535 4.25249,58.199 -0.6308,0.56106 -11.34298,1.99595 -23.80485,3.18865 -12.46188,1.19269 -25.43876,2.49788 -28.83752,2.90041 -5.74695,0.68064 -6.22622,0.5199 -6.84604,-2.29586 l 0,0 z"
       id="path7358"
       inkscape:connector-curvature="0" />
    <path
       style="color:#000000;display:inline;overflow:visible;visibility:visible;fill:#ac9393;fill-opacity:1;fill-rule:nonzero;stroke:#ac9393;stroke-width:6.35256243;stroke-miterlimit:5;stroke-dasharray:none;stroke-dashoffset:0;marker:none;enable-background:accumulate"
       d="m 414.99972,279.32164 c -0.38733,-2.62043 -0.86638,-7.62308 -1.06454,-11.11699 l -0.36033,-6.35257 24.77499,-2.1355 c 13.62624,-1.17452 28.06244,-2.17505 32.08044,-2.22339 l 7.30545,-0.0879 0,10.79934 c 0,7.78941 -0.44264,10.80096 -1.58815,10.80513 -0.87347,0.004 -13.88034,1.13742 -28.90415,2.52057 -15.02381,1.38315 -28.26631,2.52403 -29.42774,2.53527 -1.47356,0.0142 -2.32455,-1.41937 -2.81597,-4.74398 z"
       id="path7360"
       inkscape:connector-curvature="0" />
    <path
       style="display:inline;fill:none;stroke:#333333;stroke-width:5.03097296;stroke-linecap:butt;stroke-linejoin:round;stroke-miterlimit:5;stroke-dasharray:none;stroke-dashoffset:0;stroke-opacity:1"
       d="m 60.930699,304.68978 c 22.582946,-3.57534 45.199151,-7.12157 67.854561,-10.59209 0.38554,-0.0589 0.73812,0.16887 0.79051,0.51101 l 9.46291,50.55484 c 0.0524,0.34213 -5.24424,-27.00563 -5.62662,-26.94704 -22.4694,3.44264 -44.954308,6.96802 -67.460669,10.52953 -0.383003,0.0606 -0.717412,-0.16904 -0.789043,-0.50766 l -4.827645,-22.82168 c -0.07163,-0.33863 0.211691,-0.66607 0.595996,-0.72691 z m 69.246461,-10.8052 c 22.65704,-3.46739 45.3534,-6.85811 68.09511,-10.12553 0.38699,-0.0556 0.73818,0.17548 0.78737,0.51808 l 11.24612,78.33117 c 0.0491,0.34259 -3.68705,-26.69016 -4.06901,-26.63528 -22.44401,3.22525 -43.94454,6.26318 -66.41332,9.70242 -0.38236,0.0584 -0.73237,-0.16977 -0.78475,-0.5119 l -9.46291,-50.55484 c -0.0524,-0.34214 0.21583,-0.66512 0.60139,-0.72412 z m 69.49231,-10.32612 c 18.44696,-2.64606 36.92381,-5.21038 55.43374,-7.6681 4.31295,-0.5727 8.6274,-1.13919 12.94335,-1.69928 0.38877,-0.0505 0.73759,0.18533 0.78207,0.52858 l 10.16903,78.48089 c 0.0445,0.34326 -0.22696,0.65939 -0.6086,0.70888 -4.23657,0.54951 -8.47296,1.10537 -12.70911,1.66741 -18.19469,2.41405 -36.39229,4.93931 -54.59598,7.55092 -0.38194,0.0549 -0.72902,-0.17687 -0.77821,-0.51946 l -11.24612,-78.33117 c -0.0491,-0.3426 0.22278,-0.66315 0.60983,-0.71867 z m 69.78069,-9.54929 c 22.84765,-2.95742 45.73708,-5.73478 68.66742,-8.30157 0.39022,-0.0436 0.73157,0.19859 0.77378,0.54212 l 8.11686,66.06918 c 0.0385,0.34399 1.78337,20.77916 1.40155,20.82193 -22.43715,2.51283 -46.21681,5.2352 -68.64294,8.13659 -0.38164,0.0494 -0.72469,-7.73361 -0.76917,-8.07687 l -10.16903,-78.48089 c -0.0445,-0.34325 0.23272,-0.66017 0.62153,-0.71049 z m 70.07621,-8.45901 c 22.93201,-2.55814 45.90489,-4.90509 68.91778,-7.01031 0.39163,-0.0358 0.73197,0.21293 0.7637,0.55757 l 2.65497,28.83317 c 0.0314,0.34469 3.61231,38.04562 3.23033,38.08056 -22.44656,2.05338 -44.88895,4.34743 -67.3263,6.85166 -0.38183,0.0427 -0.71643,-0.20036 -0.75863,-0.54391 l -8.11686,-66.06918 c -0.0385,-0.34397 0.24476,-0.656 0.63501,-0.69956 z m 70.33166,-7.13934 c 13.02829,-1.18613 26.0694,-2.29461 39.12317,-3.31987 10.01276,-0.78398 26.31596,-1.51606 31.86472,-2.34447 l 0.89212,29.55128 c -22.88761,1.56931 -47.96022,4.26996 -69.12894,6.19215 -0.38198,0.0347 -0.71455,-0.21466 -0.74628,-0.55932 l -2.65497,-28.83317 c -0.0314,-0.34468 0.25853,-0.65094 0.65018,-0.6866 z m 139.94371,-9.98441 c 4.66031,-0.2422 -68.84987,4.56272 -68.84987,4.56272 11.34358,-0.62836 58.0162,-3.94055 68.84987,-4.56272 z m 71.80784,-4.52013 c 0.39298,-0.009 -3.69879,-63.58063 -3.69879,-63.58063 0.007,0.34599 0.92494,17.57277 0.54137,17.58161 -22.53964,0.51936 -48.87521,3.1775 -71.37918,4.17793 l 2.3812,46.29763 c 12.63647,-0.11408 60.24715,-4.513 72.1554,-4.47654 z m 210.70159,-61.44665 c 0.39206,0.0133 0.7004,-4.72828 0.68638,-4.38238 l -2.69798,66.52406 c -0.0114,0.34596 -0.33083,0.61394 -0.71531,0.6009 -22.59306,-0.7661 -45.18425,-1.34532 -67.7691,-1.72258 -0.38435,-0.006 -0.68917,-0.29017 -0.68346,-0.63628 l 1.28449,-61.95921 c 11.89201,-0.11495 46.85693,0.79299 69.89498,1.57549 z m 1.41534,-4.98267 c 23.0374,0.79036 46.0589,1.77258 69.06002,2.93159 0.39141,0.0198 0.69249,0.31395 0.67507,0.65964 l -3.98367,66.45818 c -0.0175,0.34569 -0.34097,0.60842 -0.72542,0.58915 -22.59219,-1.1319 -45.18709,-2.09225 -67.78023,-2.86601 -0.38448,-0.0132 -0.68452,-0.30224 -0.67271,-0.6482 l 2.69798,-66.52406 c 0.0114,-0.34598 0.33692,-0.61374 0.72896,-0.60029 z m -143.68627,4.79482 c 23.08365,-0.0555 60.06572,1.05148 71.94768,0.52467 0.39253,0.006 -0.85622,60.04691 -0.85622,60.04691 -0.006,0.34613 -0.31972,0.61964 -0.70405,0.61337 -22.58459,-0.36897 -45.16274,-0.53569 -67.72998,-0.48508 -0.38402,8.6e-4 -0.69391,-0.27703 -0.69478,-0.62314 l -0.0312,-61.10656 0.0312,61.10663 c 8.7e-4,0.34611 -0.3076,-62.26165 -0.69162,-62.26063 -22.56679,0.0595 -62.22339,0.33668 -73.37042,0.28719 -0.38358,0.009 3.61023,63.84436 3.61023,63.84436 l 70.84751,-1.52543"
       id="path7065-8-3-8"
       inkscape:connector-curvature="0"
       sodipodi:nodetypes="ccccscsscccscsccccssccccscscsccscsccccccscscsccsccccscsccccccccccccscccccccccsccccccccccccccc" />
  </g>
  <g
     inkscape:groupmode="layer"
     id="layer2"
     inkscape:label="Ellipsoid"
     style="display:none"
     transform="translate(-22.8125,268.31249)">
    <rect
       style="color:#000000;display:inline;overflow:visible;visibility:visible;fill:#f2f2f2;fill-opacity:0.56716416;fill-rule:nonzero;stroke:#f9f9f9;stroke-width:4.31149769;stroke-linecap:round;stroke-linejoin:miter;stroke-miterlimit:5;stroke-dasharray:25.86898735, 4.31149789;stroke-dashoffset:0;stroke-opacity:0.17910449;marker:none;enable-background:accumulate"
       id="rect4016"
       width="1002.0627"
       height="755.81042"
       x="-22.416397"
       y="-305.38141"
       rx="0.70076001"
       ry="0.73527682" />
    <path
       style="fill:none;stroke:#1a1a1a;stroke-width:3.7732296;stroke-linecap:butt;stroke-linejoin:miter;stroke-miterlimit:5;stroke-dasharray:22.63937819, 3.7732297;stroke-dashoffset:0;stroke-opacity:1"
       d="M -71.088626,156.74123 C 169.64927,98.59135 470.77688,47.130479 950.05775,80.202209"
       id="path3005"
       inkscape:connector-curvature="0"
       sodipodi:nodetypes="cc" />
    <path
       style="fill:none;stroke:#1a1a1a;stroke-width:3.7732296;stroke-linecap:butt;stroke-linejoin:miter;stroke-miterlimit:5;stroke-dasharray:22.63937819, 3.7732297;stroke-dashoffset:0;stroke-opacity:1"
       d="M -58.492493,333.88875 C 251.44072,278.7548 593.53701,226.99391 944.68616,253.75616"
       id="path3005-8"
       inkscape:connector-curvature="0"
       sodipodi:nodetypes="cc" />
    <text
       xml:space="preserve"
       style="font-style:normal;font-variant:normal;font-weight:normal;font-stretch:normal;font-size:25.15486526px;line-height:125%;font-family:'TeX Gyre Heros';-inkscape-font-specification:'TeX Gyre Heros';letter-spacing:0px;word-spacing:0px;display:inline;fill:#000000;fill-opacity:1;stroke:none"
       x="256.68332"
       y="243.0181"
       id="text4018-4"
       sodipodi:linespacing="125%"
       transform="matrix(0.99170276,-0.12855208,0.12855208,0.99170276,0,0)"><tspan
         sodipodi:role="line"
         id="tspan4020-8"
         x="256.68332"
         y="243.0181"
         style="font-size:37.73229599px">Crosta<tspan
   style="font-size:64.99999762%;baseline-shift:super"
   id="tspan3858">E</tspan></tspan></text>
    <text
       xml:space="preserve"
       style="font-style:normal;font-variant:normal;font-weight:normal;font-stretch:normal;font-size:25.15486526px;line-height:125%;font-family:'TeX Gyre Heros';-inkscape-font-specification:'TeX Gyre Heros';letter-spacing:0px;word-spacing:0px;display:inline;fill:#000000;fill-opacity:1;stroke:none"
       x="395.00577"
       y="401.30249"
       id="text4018-6"
       sodipodi:linespacing="125%"
       transform="matrix(0.99643285,-0.08438943,0.08438943,0.99643285,0,0)"><tspan
         sodipodi:role="line"
         id="tspan4020-2"
         x="395.00577"
         y="401.30249"
         style="font-size:37.73229599px">Manto<tspan
   style="font-size:64.99999762%;baseline-shift:super"
   id="tspan3860">E</tspan></tspan></text>
    <path
       style="fill:none;stroke:#1a1a1a;stroke-width:5.03097296;stroke-linecap:butt;stroke-linejoin:miter;stroke-miterlimit:4;stroke-dasharray:none;stroke-opacity:1;marker-start:url(#Arrow1Mstart);marker-end:url(#Arrow1Mend)"
       d="M 428.30526,89.546209 448.06979,249.45929"
       id="path4054"
       inkscape:connector-curvature="0"
       sodipodi:nodetypes="cc" />
  </g>
  <g
     inkscape:groupmode="layer"
     id="layer6"
     inkscape:label="Disturbance"
     style="display:none"
     transform="translate(0,272.06249)">
    <path
       style="color:#000000;display:inline;overflow:visible;visibility:visible;fill:#ac9393;fill-opacity:1;fill-rule:nonzero;stroke:#ac9393;stroke-width:3.59355211;stroke-linecap:round;stroke-linejoin:miter;stroke-miterlimit:5;stroke-dasharray:none;stroke-dashoffset:0;stroke-opacity:1;marker:none;enable-background:accumulate"
       d="M 261.52607,28.445369 C 245.91915,28.44281 242.46282,30.15297 196.16274,60.714344 159.64333,84.819773 144.69832,92.60172 118.22196,101.27657 108.04756,104.61014 72.626736,114.4179 37.844303,123.68011 157.96916,99.470191 294.61976,79.427677 458.83455,70.736986 447.16579,67.993219 436.47871,65.267891 430.77115,63.504962 409.61291,56.969728 394.38055,54.045526 350.11836,48.097607 322.30658,44.360286 312.85641,42.301474 295.28862,36.031133 278.04418,29.876203 271.74934,28.446627 261.52607,28.445369 Z M 500.5759,251.18383 c -166.94975,12.06743 -329.45344,35.72599 -484.781408,62.06177 4.870775,0.54203 10.801234,1.19209 16.625793,1.7687 22.515491,2.22898 83.679435,11.93536 112.292885,17.84423 9.88227,2.04077 29.08168,6.91956 42.64535,10.84805 29.92229,8.66643 52.56798,14.10528 66.97484,16.03621 15.49166,2.0763 14.85527,2.08481 31.16845,0.0392 20.14239,-2.52564 37.79677,-8.39165 73.38145,-24.29016 35.47272,-15.84845 48.55628,-23.34027 69.96197,-40.20848 8.94552,-7.04928 31.17733,-21.06424 50.66347,-31.91523 8.03464,-4.47415 14.90132,-8.44726 21.0672,-12.18439 z"
       id="path3906-3"
       inkscape:connector-curvature="0" />
    <path
       style="color:#000000;display:inline;overflow:visible;visibility:visible;fill:#ff3333;fill-opacity:1;fill-rule:nonzero;stroke:#ff3333;stroke-width:3.59355211;stroke-linecap:round;stroke-linejoin:miter;stroke-miterlimit:5;stroke-dasharray:none;stroke-dashoffset:0;stroke-opacity:1;marker:none;enable-background:accumulate"
       d="m 688.72642,180.43577 c -31.66683,0.41418 -59.77717,5.55528 -88.82811,15.91832 -26.31122,9.38574 -43.25612,18.72637 -61.27568,33.76254 -10.76146,8.97978 -17.45164,14.20352 -27.1987,20.32042 128.63099,-8.89821 259.83925,-10.83488 392.41589,-1.72939 l 0,-64.77378 -6.05288,-1.13983 c -3.33423,-0.6255 -34.86978,-0.21417 -70.07989,0.9433 -57.53466,1.89135 -66.94739,1.79947 -93.1516,-0.98261 -16.29405,-1.72992 -31.43501,-2.50722 -45.82903,-2.31897 z"
       id="path3908-9"
       inkscape:connector-curvature="0" />
    <path
       style="display:inline;fill:none;stroke:#1a1a1a;stroke-width:3.7732296;stroke-linecap:butt;stroke-linejoin:miter;stroke-miterlimit:5;stroke-dasharray:none;stroke-opacity:1"
       d="m 260.8972,25.222402 c -8.39129,0.05912 -17.25204,2.262945 -27.12008,8.057418 -35.08636,20.602563 -57.79218,42.74165 -96.5318,58.8388 C 105.86367,105.15838 40.572465,120.44184 -6.3339285,132.91667 125.78285,104.33312 277.55582,79.977323 465.12326,70.42255 454.39239,68.235447 443.85988,65.668607 433.67968,62.050697 397.28809,49.117612 359.46888,48.15003 325.31724,42.791503 300.77074,38.940067 282.34165,25.071264 260.8972,25.222402 Z"
       id="path2987-6"
       inkscape:connector-curvature="0" />
    <path
       style="display:inline;fill:none;stroke:#1a1a1a;stroke-width:3.7732296;stroke-linecap:butt;stroke-linejoin:miter;stroke-miterlimit:5;stroke-dasharray:none;stroke-opacity:1"
       d="m -40.898884,315.5104 c 39.2077197,-9.12633 168.051234,15.08907 200.044514,22.71121 31.99328,7.62212 75.75563,24.68517 109.65718,24.9191 33.90155,0.23392 56.43433,-9.78106 83.30506,-22.06018 26.87072,-12.27912 53.71828,-21.95837 78.89153,-44.60781 25.17326,-22.64942 75.3433,-39.86823 100.86389,-63.59652 25.52059,-23.7283 37.24153,-27.75319 73.76336,-41.28553 36.52184,-13.53236 90.16681,-17.15995 133.50015,-10.36703 43.33335,6.79292 142.07336,-7.10577 179.81906,2.12356"
       id="path2997-9"
       inkscape:connector-curvature="0"
       sodipodi:nodetypes="czzzzzzzc" />
    <path
       id="path3005-8-5"
       style="display:inline;fill:none;stroke:#1a1a1a;stroke-width:3.7732296;stroke-linecap:butt;stroke-linejoin:miter;stroke-miterlimit:5;stroke-dasharray:22.63937819, 3.7732297;stroke-dashoffset:0;stroke-opacity:1"
       d="M 921.87366,250.00616 C 570.7245,223.24391 228.62823,275.0048 -81.304993,330.13875 L -93.901126,152.99123 C 146.83678,94.84135 447.96436,43.380479 927.24524,76.452209 Z"
       inkscape:connector-curvature="0"
       sodipodi:nodetypes="ccccc" />
    <path
       style="color:#000000;display:inline;overflow:visible;visibility:visible;fill:#164184;fill-opacity:1;fill-rule:nonzero;stroke:#164184;stroke-width:3.59355211;stroke-linecap:round;stroke-linejoin:miter;stroke-miterlimit:5;stroke-dasharray:none;stroke-dashoffset:0;stroke-opacity:1;marker:none;enable-background:accumulate"
       d="m 758.31704,126.16939 c -42.37429,-2.15492 -86.51355,-6.90625 -125.60951,-13.52114 -45.54091,-7.70536 -53.84796,-9.84218 -77.42618,-19.916318 -10.37638,-4.43346 -25.33454,-9.98054 -33.24036,-12.32686 -10.18107,-3.02158 -56.18787,-11.08451 -52.23182,-11.15226 3.07193,-0.0526 63.82747,-0.42706 87.01692,-2.77942 64.93291,-6.58687 94.57866,-2.18078 145.00427,-0.19982 50.42561,1.98096 63.65205,-3.39199 90.161,-0.4515 26.50895,2.94049 33.4935,0.0797 51.32415,2.91986 17.83065,2.84017 34.53426,3.56573 39.48629,2.45472 4.95203,-1.111 21.05409,-0.12806 21.05409,-0.12806 l 0,27.30707 0,27.307048 -43.41357,1.18579 c -48.56632,1.32651 -64.42873,1.21793 -102.12528,-0.69911 z"
       id="path3904-8"
       inkscape:connector-curvature="0"
       sodipodi:nodetypes="sssssszzzzcccss" />
    <path
       style="display:inline;fill:none;stroke:#1a1a1a;stroke-width:3.7732296;stroke-linecap:butt;stroke-linejoin:miter;stroke-miterlimit:5;stroke-dasharray:none;stroke-opacity:1"
       d="m 464.02182,69.287672 c 48.89161,0.41416 136.77672,-10.14361 186.77732,-6.70705 50.0006,3.43655 117.27728,-0.70976 156.57445,2.73203 39.29718,3.44178 70.73048,6.9725 107.8221,4.79837"
       id="path2991-6"
       inkscape:connector-curvature="0"
       sodipodi:nodetypes="czzc" />
    <path
       style="display:inline;fill:none;stroke:#1a1a1a;stroke-width:3.7732296;stroke-linecap:butt;stroke-linejoin:miter;stroke-miterlimit:5;stroke-dasharray:none;stroke-opacity:1"
       d="M -35.634459,141.16794 C 8.07241,127.75228 98.499744,108.20319 137.23936,92.106032 c 38.73963,-16.09715 61.47089,-38.20838 96.55725,-58.81094 35.08636,-20.60257 57.36858,4.15441 91.52022,9.51294 34.15164,5.35853 71.95931,6.327 108.3509,19.26009 36.3916,12.93309 77.46728,12.16221 114.8936,30.3033 37.42632,18.141108 41.98086,13.975468 89.57878,23.676998 47.59794,9.70153 163.116,16.28917 202.40067,13.55254 39.28466,-2.73662 64.39111,0.0386 81.86499,-2.01298"
       id="path2987-5-2"
       inkscape:connector-curvature="0"
       sodipodi:nodetypes="czzzzzzzc" />
  </g>
  <g
     inkscape:groupmode="layer"
     id="layer8"
     inkscape:label="Hetero"
     style="display:none"
     transform="translate(0,272.06249)">
    <path
       style="color:#000000;display:inline;overflow:visible;visibility:visible;fill:#ff3333;fill-opacity:0.52238805;fill-rule:nonzero;stroke:#ff3333;stroke-width:0.12705125;stroke-linecap:round;stroke-linejoin:miter;stroke-miterlimit:5;stroke-dasharray:none;stroke-dashoffset:0;stroke-opacity:0.17910449;marker:none;enable-background:accumulate"
       d="m 111.12948,228.9491 c -6.24019,-2.29182 -8.23845,-4.04965 -11.19781,-9.8505 -3.48732,-6.83571 -3.25083,-17.74918 0.56045,-25.86347 5.88175,-12.52241 11.17444,-14.53892 41.45933,-15.79599 16.92197,-0.7024 23.20542,-1.42995 26.30013,-3.04523 5.47547,-2.85793 18.74913,-5.89194 25.87791,-5.915 9.35888,-0.0303 18.93097,3.45412 24.33532,8.85849 10.1611,10.1611 4.47267,26.51201 -12.35249,35.50614 -4.74072,2.53422 -6.24128,2.65969 -22.34206,1.86817 -19.40443,-0.95392 -19.34527,-0.96584 -41.81881,8.41974 -16.75876,6.99891 -23.92349,8.35125 -30.82197,5.81765 z"
       id="path6542"
       inkscape:connector-curvature="0" />
    <path
       style="color:#000000;display:inline;overflow:visible;visibility:visible;fill:#ffd42a;fill-opacity:0.52238805;fill-rule:nonzero;stroke:#ac9393;stroke-width:0.06352563;stroke-linecap:round;stroke-linejoin:miter;stroke-miterlimit:5;stroke-dasharray:none;stroke-dashoffset:0;stroke-opacity:0.17910449;marker:none;enable-background:accumulate"
       d="m 316.96924,118.9801 c -6.83106,-0.81775 -32.68133,-6.0352 -58.12594,-11.73175 l -17.15192,-3.83997 -8.96561,-4.658544 -8.96561,-4.658544 6.58341,-0.804605 c 4.59915,-0.562098 6.58339,-1.055737 6.58339,-1.637808 0,-0.458259 0.26249,-0.833205 0.58331,-0.833205 0.32081,0 1.03546,-0.173518 1.58813,-0.385599 0.66126,-0.253737 1.00484,-0.03396 1.00484,0.64277 0,0.827067 0.46629,0.959821 2.38222,0.678213 1.31021,-0.192574 6.3403,-0.866699 11.17798,-1.498048 4.83767,-0.631349 8.98271,-1.431299 9.21122,-1.777669 0.72914,-1.105317 3.27409,-1.45258 3.27409,-0.446737 0,0.605627 0.47335,0.804816 1.42932,0.601465 0.78613,-0.16723 5.961,-0.79736 11.49971,-1.400284 6.90663,-0.751841 10.17106,-1.358639 10.39088,-1.931453 0.37859,-0.986574 2.52344,-1.124045 2.8375,-0.18187 0.31471,0.944125 22.01739,-1.274672 23.10485,-2.362142 0.93716,-0.937157 3.24683,-1.120624 3.56988,-0.283584 0.23333,0.604535 22.2533,-1.152243 22.76336,-1.81608 0.64332,-0.83728 2.76905,-1.297237 3.1496,-0.681508 0.51052,0.826047 23.05295,-1.088841 23.62006,-2.006428 0.24826,-0.401723 1.34433,-0.483125 2.80801,-0.208534 2.55544,0.479402 23.14799,-0.845706 23.14946,-1.489645 4.7e-4,-0.209767 3.93112,-0.430828 8.73477,-0.491237 4.80365,-0.06038 11.06092,-0.405798 13.90504,-0.767513 2.84413,-0.361702 10.39548,-0.824953 16.78078,-1.029425 6.38532,-0.204484 11.8805,-0.539182 12.21151,-0.743766 0.69585,-0.430049 25.23304,-1.033802 25.23304,-0.620873 0,0.508405 -13.59802,9.12416 -20.23085,12.818328 -8.26637,4.603994 -17.19366,8.490986 -26.33416,11.46604 -5.69661,1.854142 -8.69639,2.430764 -15.05484,2.893867 -13.50842,0.983858 -20.9664,2.643448 -43.83269,9.753928 -15.11625,4.70054 -26.29886,7.57919 -33.03333,8.50349 -6.26172,0.85942 -13.11331,1.26009 -15.88141,0.92872 l 0,0 z"
       id="path6546"
       inkscape:connector-curvature="0" />
    <path
       style="color:#000000;display:inline;overflow:visible;visibility:visible;fill:#ac9393;fill-opacity:0.52238805;fill-rule:nonzero;stroke:#ac9393;stroke-width:0.12577431;marker:none;enable-background:accumulate"
       d="m 583.66962,195.48009 c -0.68409,-2.43007 -4.58421,-86.27255 -4.03853,-86.81823 0.27964,-0.27965 14.72864,2.03992 32.10888,5.15457 42.4992,7.61615 53.789,9.34577 75.43314,11.55655 47.19269,4.82034 55.39197,5.12737 136.89773,5.1265 l 81.63044,-8.7e-4 0,23.82298 0,23.82299 -26.36315,-0.0171 c -14.49972,-0.009 -46.37371,0.65228 -70.83107,1.47043 -42.95981,1.43705 -45.43744,1.38893 -73.05446,-1.41885 -55.66895,-5.6598 -96.09655,-1.63346 -137.70869,13.71491 -8.90044,3.28287 -13.80765,4.53323 -14.07429,3.58614 z"
       id="path6532"
       inkscape:connector-curvature="0" />
  </g>
  <g
     inkscape:groupmode="layer"
     id="layer9"
     inkscape:label="Bouguer"
     style="display:none"
     transform="translate(0,272.06249)">
    <path
       style="color:#000000;display:inline;overflow:visible;visibility:visible;fill:#ac9393;fill-opacity:1;fill-rule:nonzero;stroke:#ac9393;stroke-width:3.59355211;stroke-linecap:round;stroke-linejoin:miter;stroke-miterlimit:5;stroke-dasharray:none;stroke-dashoffset:0;stroke-opacity:1;marker:none;enable-background:accumulate"
       d="m 500.5759,251.18383 c -166.94975,12.06743 -329.45344,35.72599 -484.781408,62.06177 4.870775,0.54203 10.801234,1.19209 16.625787,1.7687 22.515491,2.22898 83.679451,11.93536 112.292891,17.84423 9.88227,2.04077 29.08168,6.91956 42.64535,10.84805 29.92229,8.66643 52.56798,14.10528 66.97484,16.03621 15.49164,2.0763 14.85527,2.08481 31.16845,0.0392 20.14238,-2.52564 37.79676,-8.39165 73.38145,-24.29016 35.47271,-15.84845 48.55628,-23.34027 69.96197,-40.20848 8.94552,-7.04928 31.17733,-21.06424 50.66347,-31.91523 8.03464,-4.47415 14.90131,-8.44726 21.0672,-12.18439 z"
       id="path3906-3-5"
       inkscape:connector-curvature="0" />
    <path
       style="color:#000000;display:inline;overflow:visible;visibility:visible;fill:#ff3333;fill-opacity:1;fill-rule:nonzero;stroke:#ff3333;stroke-width:3.59355211;stroke-linecap:round;stroke-linejoin:miter;stroke-miterlimit:5;stroke-dasharray:none;stroke-dashoffset:0;stroke-opacity:1;marker:none;enable-background:accumulate"
       d="m 688.72642,180.43577 c -31.66683,0.41418 -59.77718,5.55528 -88.82811,15.91832 -26.31123,9.38574 -43.25612,18.72637 -61.27568,33.76254 -10.76147,8.97978 -17.45165,14.20352 -27.1987,20.32042 128.63098,-8.89821 259.83924,-10.83488 392.41589,-1.72939 l 0,-64.77378 -6.05288,-1.13983 c -3.33424,-0.6255 -34.86977,-0.21417 -70.07989,0.9433 -57.53469,1.89135 -66.9474,1.79947 -93.1516,-0.98261 -16.29405,-1.72992 -31.43502,-2.50722 -45.82903,-2.31897 z"
       id="path3908-9-1"
       inkscape:connector-curvature="0" />
    <path
       style="display:inline;fill:none;stroke:#1a1a1a;stroke-width:3.7732296;stroke-linecap:butt;stroke-linejoin:miter;stroke-miterlimit:5;stroke-dasharray:none;stroke-opacity:1"
       d="m -40.898884,315.5104 c 39.2077197,-9.12633 168.051234,15.08907 200.044494,22.71121 31.99328,7.62212 75.75563,24.68517 109.6572,24.9191 33.90155,0.23392 56.43432,-9.78106 83.30504,-22.06018 26.87073,-12.27912 53.71828,-21.95837 78.89154,-44.60781 25.17325,-22.64942 75.3433,-39.86823 100.86389,-63.59652 25.5206,-23.7283 37.24153,-27.75319 73.76336,-41.28553 36.52183,-13.53236 90.16681,-17.15995 133.50015,-10.36703 43.33334,6.79292 142.07336,-7.10577 179.81906,2.12356"
       id="path2997-9-7"
       inkscape:connector-curvature="0"
       sodipodi:nodetypes="czzzzzzzc" />
    <path
       id="path3005-8-5-4"
       style="display:inline;fill:none;stroke:#1a1a1a;stroke-width:3.7732296;stroke-linecap:butt;stroke-linejoin:miter;stroke-miterlimit:5;stroke-dasharray:22.63937819, 3.7732297;stroke-dashoffset:0;stroke-opacity:1"
       d="M 921.87366,250.00616 C 570.72449,223.24391 228.62823,275.0048 -81.304993,330.13875 L -93.901126,152.99123 C 146.83678,94.84135 447.96436,43.380479 927.24523,76.452209 Z"
       inkscape:connector-curvature="0"
       sodipodi:nodetypes="ccccc" />
    <text
       xml:space="preserve"
       style="font-style:normal;font-variant:normal;font-weight:normal;font-stretch:normal;font-size:25.15486526px;line-height:125%;font-family:'TeX Gyre Heros';-inkscape-font-specification:'TeX Gyre Heros';letter-spacing:0px;word-spacing:0px;display:inline;fill:#000000;fill-opacity:1;stroke:none"
       x="654.20526"
       y="223.56299"
       id="text4918-88"
       sodipodi:linespacing="125%"><tspan
         sodipodi:role="line"
         id="tspan4920-6"
         x="654.20526"
         y="223.56299">manto<tspan
   style="font-size:64.99999762%;baseline-shift:super"
   id="tspan3850-8">T</tspan> - crosta<tspan
   style="font-size:64.99999762%;baseline-shift:super"
   id="tspan3852-8">E</tspan></tspan></text>
    <text
       xml:space="preserve"
       style="font-style:normal;font-variant:normal;font-weight:normal;font-stretch:normal;font-size:25.15486526px;line-height:125%;font-family:'TeX Gyre Heros';-inkscape-font-specification:'TeX Gyre Heros';letter-spacing:0px;word-spacing:0px;display:inline;fill:#000000;fill-opacity:1;stroke:none"
       x="159.54076"
       y="344.92734"
       id="text4918-2-5"
       sodipodi:linespacing="125%"
       transform="matrix(0.994312,-0.10650659,0.10650659,0.994312,0,0)"><tspan
         sodipodi:role="line"
         id="tspan4920-0-7"
         x="159.54076"
         y="344.92734">crosta<tspan
   style="font-size:64.99999762%;baseline-shift:super"
   id="tspan3801-7">T</tspan> - manto<tspan
   style="font-size:64.99999762%;baseline-shift:super"
   id="tspan3803-7">E</tspan></tspan></text>
  </g>
  <g
     inkscape:groupmode="layer"
     id="layer10"
     inkscape:label="Disturbance names"
     style="display:none"
     transform="translate(0,272.06249)">
    <text
       xml:space="preserve"
       style="font-style:normal;font-variant:normal;font-weight:normal;font-stretch:normal;font-size:25.15486526px;line-height:125%;font-family:'TeX Gyre Heros';-inkscape-font-specification:'TeX Gyre Heros';letter-spacing:0px;word-spacing:0px;display:inline;fill:#000000;fill-opacity:1;stroke:none"
       x="654.20526"
       y="223.56299"
       id="text4918"
       sodipodi:linespacing="125%"><tspan
         sodipodi:role="line"
         id="tspan4920"
         x="654.20526"
         y="223.56299">manto<tspan
   style="font-size:64.99999762%;baseline-shift:super"
   id="tspan3850">T</tspan> - crosta<tspan
   style="font-size:64.99999762%;baseline-shift:super"
   id="tspan3852">E</tspan></tspan></text>
    <text
       xml:space="preserve"
       style="font-style:normal;font-variant:normal;font-weight:normal;font-stretch:normal;font-size:25.15486526px;line-height:125%;font-family:'TeX Gyre Heros';-inkscape-font-specification:'TeX Gyre Heros';letter-spacing:0px;word-spacing:0px;display:inline;fill:#000000;fill-opacity:1;stroke:none"
       x="159.54076"
       y="344.92734"
       id="text4918-2"
       sodipodi:linespacing="125%"
       transform="matrix(0.994312,-0.10650659,0.10650659,0.994312,0,0)"><tspan
         sodipodi:role="line"
         id="tspan4920-0"
         x="159.54076"
         y="344.92734">crosta<tspan
   style="font-size:64.99999762%;baseline-shift:super"
   id="tspan3801">T</tspan> - manto<tspan
   style="font-size:64.99999762%;baseline-shift:super"
   id="tspan3803">E</tspan></tspan></text>
    <text
       xml:space="preserve"
       style="font-style:normal;font-variant:normal;font-weight:normal;font-stretch:normal;font-size:25.15486526px;line-height:125%;font-family:'TeX Gyre Heros';-inkscape-font-specification:'TeX Gyre Heros';letter-spacing:0px;word-spacing:0px;display:inline;fill:#000000;fill-opacity:1;stroke:none"
       x="221.39168"
       y="102.20988"
       id="text4943"
       sodipodi:linespacing="125%"
       transform="matrix(0.99273818,-0.12029507,0.12029507,0.99273818,0,0)"><tspan
         sodipodi:role="line"
         id="tspan4945"
         x="221.39168"
         y="102.20988">topo<tspan
   style="font-size:64.99999762%;baseline-shift:super"
   id="tspan3799">T</tspan></tspan></text>
    <text
       xml:space="preserve"
       style="font-style:normal;font-variant:normal;font-weight:normal;font-stretch:normal;font-size:25.15486526px;line-height:125%;font-family:'TeX Gyre Heros';-inkscape-font-specification:'TeX Gyre Heros';letter-spacing:0px;word-spacing:0px;display:inline;fill:#000000;fill-opacity:1;stroke:none"
       x="672.72821"
       y="105.06063"
       id="text4918-8"
       sodipodi:linespacing="125%"><tspan
         sodipodi:role="line"
         id="tspan4920-01"
         x="672.72821"
         y="105.06063">água<tspan
   style="font-size:64.99999762%;baseline-shift:super"
   id="tspan3856">T</tspan> - crosta<tspan
   style="font-size:64.99999762%;baseline-shift:super"
   id="tspan3854">E</tspan></tspan></text>
  </g>
  <g
     inkscape:groupmode="layer"
     id="layer3"
     inkscape:label="Disturbance sign"
     style="display:none">
    <text
       xml:space="preserve"
       style="font-style:normal;font-variant:normal;font-weight:normal;font-stretch:normal;font-size:86.40901947px;line-height:125%;font-family:'TeX Gyre Heros';-inkscape-font-specification:'TeX Gyre Heros';letter-spacing:0px;word-spacing:0px;display:inline;fill:#000000;fill-opacity:1;stroke:none"
       x="719.44348"
       y="472.24191"
       id="text4918-9"
       sodipodi:linespacing="125%"
       transform="scale(0.93142652,1.073622)"><tspan
         sodipodi:role="line"
         id="tspan4920-3"
         x="719.44348"
         y="472.24191">+</tspan></text>
    <text
       xml:space="preserve"
       style="font-style:normal;font-variant:normal;font-weight:normal;font-stretch:normal;font-size:86.40901947px;line-height:125%;font-family:'TeX Gyre Heros';-inkscape-font-specification:'TeX Gyre Heros';letter-spacing:0px;word-spacing:0px;display:inline;fill:#000000;fill-opacity:1;stroke:none"
       x="796.85626"
       y="366.89536"
       id="text4918-9-9"
       sodipodi:linespacing="125%"
       transform="scale(0.93142652,1.073622)"><tspan
         sodipodi:role="line"
         id="tspan4920-3-8"
         x="796.85626"
         y="366.89536">-</tspan></text>
    <text
       xml:space="preserve"
       style="font-style:normal;font-variant:normal;font-weight:normal;font-stretch:normal;font-size:86.40901947px;line-height:125%;font-family:'TeX Gyre Heros';-inkscape-font-specification:'TeX Gyre Heros';letter-spacing:0px;word-spacing:0px;display:inline;fill:#000000;fill-opacity:1;stroke:none"
       x="254.21704"
       y="326.71094"
       id="text4918-9-7"
       sodipodi:linespacing="125%"
       transform="scale(0.93142652,1.073622)"><tspan
         sodipodi:role="line"
         id="tspan4920-3-4"
         x="254.21704"
         y="326.71094">+</tspan></text>
    <text
       xml:space="preserve"
       style="font-style:normal;font-variant:normal;font-weight:normal;font-stretch:normal;font-size:86.40901947px;line-height:125%;font-family:'TeX Gyre Heros';-inkscape-font-specification:'TeX Gyre Heros';letter-spacing:0px;word-spacing:0px;display:inline;fill:#000000;fill-opacity:1;stroke:none"
       x="287.65268"
       y="573.13977"
       id="text4918-9-1"
       sodipodi:linespacing="125%"
       transform="scale(0.93142652,1.073622)"><tspan
         sodipodi:role="line"
         id="tspan4920-3-3"
         x="287.65268"
         y="573.13977">-</tspan></text>
  </g>
  <g
     inkscape:groupmode="layer"
     id="layer7"
     inkscape:label="Obs point"
     style="display:none"
     transform="translate(0,272.06249)">
    <circle
       style="color:#000000;display:inline;overflow:visible;visibility:visible;fill:#333333;stroke:#1a1a1a;stroke-width:2.51548648;stroke-linecap:round;stroke-linejoin:miter;stroke-miterlimit:5;stroke-dasharray:none;stroke-dashoffset:0;stroke-opacity:1;marker:none;enable-background:accumulate"
       id="path3864"
       cx="626.65631"
       cy="-62.147331"
       r="7.1871042" />
    <text
       xml:space="preserve"
       style="font-style:normal;font-variant:normal;font-weight:normal;font-stretch:normal;font-size:25.15486526px;line-height:125%;font-family:'TeX Gyre Heros';-inkscape-font-specification:'TeX Gyre Heros';letter-spacing:0px;word-spacing:0px;display:inline;fill:#000000;fill-opacity:1;stroke:none"
       x="644.71436"
       y="-50.532104"
       id="text3892"
       sodipodi:linespacing="125%"><tspan
         sodipodi:role="line"
         id="tspan3894"
         x="644.71436"
         y="-50.532104">P</tspan></text>
  </g>
</svg>
